<svg xmlns="http://www.w3.org/2000/svg" xmlns:xlink="http://www.w3.org/1999/xlink" width="1080" zoomAndPan="magnify" viewBox="0 0 810 809.999993" height="1080" preserveAspectRatio="xMidYMid meet" version="1.0"><defs><g/><clipPath id="5d6ce0c5ab"><rect x="0" width="571" y="0" height="810"/></clipPath><clipPath id="42e89c79d0"><path d="M 144.308594 279 L 665.84375 279 L 665.84375 531 L 144.308594 531 Z M 144.308594 279 " clip-rule="nonzero"/></clipPath><clipPath id="b12a3aae2b"><path d="M 452.578125 290.109375 L 651.3125 382.804688 C 659.933594 386.824219 665.445312 395.480469 665.445312 404.996094 C 665.445312 414.511719 659.933594 423.164062 651.3125 427.1875 L 452.578125 519.878906 C 422.417969 533.949219 387.582031 533.949219 357.421875 519.878906 L 158.6875 427.1875 C 150.066406 423.164062 144.554688 414.511719 144.554688 404.996094 C 144.554688 395.480469 150.066406 386.824219 158.6875 382.804688 L 357.421875 290.109375 C 387.582031 276.042969 422.417969 276.042969 452.578125 290.109375 Z M 452.578125 290.109375 " clip-rule="nonzero"/></clipPath><clipPath id="b9cda43883"><path d="M 0.480469 0 L 521.519531 0 L 521.519531 252 L 0.480469 252 Z M 0.480469 0 " clip-rule="nonzero"/></clipPath><clipPath id="b9958a20eb"><path d="M 308.578125 11.109375 L 507.3125 103.804688 C 515.933594 107.824219 521.445312 116.480469 521.445312 125.996094 C 521.445312 135.511719 515.933594 144.164062 507.3125 148.1875 L 308.578125 240.878906 C 278.417969 254.949219 243.582031 254.949219 213.421875 240.878906 L 14.6875 148.1875 C 6.066406 144.164062 0.554688 135.511719 0.554688 125.996094 C 0.554688 116.480469 6.066406 107.824219 14.6875 103.804688 L 213.421875 11.109375 C 243.582031 -2.957031 278.417969 -2.957031 308.578125 11.109375 Z M 308.578125 11.109375 " clip-rule="nonzero"/></clipPath><clipPath id="19f626dc00"><rect x="0" width="522" y="0" height="252"/></clipPath><clipPath id="c92c8f0941"><path d="M 372.292969 372.292969 L 437.707031 372.292969 L 437.707031 437.707031 L 372.292969 437.707031 Z M 372.292969 372.292969 " clip-rule="nonzero"/></clipPath><clipPath id="63c49e231e"><path d="M 418.542969 372.292969 L 437.707031 391.457031 L 437.707031 418.542969 L 418.542969 437.707031 L 391.457031 437.707031 L 372.292969 418.542969 L 372.292969 391.457031 L 391.457031 372.292969 Z M 418.542969 372.292969 " clip-rule="nonzero"/></clipPath><clipPath id="135fb98fe9"><path d="M 0.292969 0.292969 L 65.707031 0.292969 L 65.707031 65.707031 L 0.292969 65.707031 Z M 0.292969 0.292969 " clip-rule="nonzero"/></clipPath><clipPath id="c3a96baa8d"><path d="M 46.542969 0.292969 L 65.707031 19.457031 L 65.707031 46.542969 L 46.542969 65.707031 L 19.457031 65.707031 L 0.292969 46.542969 L 0.292969 19.457031 L 19.457031 0.292969 Z M 46.542969 0.292969 " clip-rule="nonzero"/></clipPath><clipPath id="9621b6f27a"><rect x="0" width="66" y="0" height="66"/></clipPath></defs><rect x="-81" width="972" fill="#ffffff" y="-80.999999" height="971.999992" fill-opacity="1"/><rect x="-81" width="972" fill="#545454" y="-80.999999" height="971.999992" fill-opacity="1"/><g transform="matrix(1, 0, 0, 1, 126, 0.000000000000039746)"><g clip-path="url(#5d6ce0c5ab)"><g fill="#ffffff" fill-opacity="1"><g transform="translate(14.465274, 702.200278)"><g><path d="M 148.90625 -274.5625 L 148.515625 -277.328125 C 144.835938 -287.046875 141.222656 -295.84375 137.671875 -303.71875 C 134.128906 -311.59375 131.175781 -320.519531 128.8125 -330.5 C 128.03125 -333.65625 126.71875 -336.476562 124.875 -338.96875 C 123.039062 -341.46875 121.203125 -343.960938 119.359375 -346.453125 C 117.523438 -348.953125 115.816406 -351.445312 114.234375 -353.9375 C 112.660156 -356.4375 111.613281 -359.128906 111.09375 -362.015625 C 108.195312 -375.410156 105.109375 -388.28125 101.828125 -400.625 C 98.546875 -412.96875 94.539062 -425.441406 89.8125 -438.046875 L 80.359375 -458.140625 L 74.84375 -477.828125 C 71.957031 -482.816406 68.347656 -487.148438 64.015625 -490.828125 C 59.679688 -494.503906 55.28125 -497.984375 50.8125 -501.265625 C 46.351562 -504.554688 42.148438 -507.773438 38.203125 -510.921875 C 34.265625 -514.078125 31.25 -517.492188 29.15625 -521.171875 C 26.257812 -521.171875 23.039062 -521.363281 19.5 -521.75 C 15.957031 -522.144531 12.539062 -523 9.25 -524.3125 C 5.96875 -525.625 3.210938 -527.394531 0.984375 -529.625 C -1.242188 -531.863281 -2.359375 -534.820312 -2.359375 -538.5 C -2.359375 -542.4375 -1.175781 -545.457031 1.1875 -547.5625 C 3.550781 -549.664062 6.304688 -550.71875 9.453125 -550.71875 L 32.703125 -547.953125 C 34.015625 -547.953125 35.328125 -548.609375 36.640625 -549.921875 C 37.953125 -551.234375 39.789062 -551.890625 42.15625 -551.890625 C 44.25 -551.890625 46.085938 -552.8125 47.671875 -554.65625 L 74.84375 -554.65625 L 119.75 -550.71875 C 128.675781 -550.71875 136.882812 -551.765625 144.375 -553.859375 C 151.863281 -555.960938 159.804688 -557.671875 168.203125 -558.984375 C 173.460938 -559.242188 177.992188 -559.503906 181.796875 -559.765625 C 185.609375 -560.035156 188.957031 -560.171875 191.84375 -560.171875 C 195 -560.171875 198.609375 -560.5 202.671875 -561.15625 C 206.742188 -561.8125 211.144531 -562.664062 215.875 -563.71875 C 216.65625 -563.71875 218.882812 -563.519531 222.5625 -563.125 C 226.238281 -562.726562 230.046875 -562.003906 233.984375 -560.953125 C 237.929688 -559.898438 241.476562 -558.390625 244.625 -556.421875 C 247.78125 -554.453125 249.359375 -552.023438 249.359375 -549.140625 L 247.390625 -527.46875 C 247.390625 -525.894531 246.269531 -524.253906 244.03125 -522.546875 C 241.800781 -520.835938 239.175781 -519.195312 236.15625 -517.625 C 233.132812 -516.050781 230.113281 -514.800781 227.09375 -513.875 C 224.070312 -512.957031 221.90625 -512.5 220.59375 -512.5 L 207.59375 -515.265625 C 202.34375 -515.265625 198.078125 -515.066406 194.796875 -514.671875 C 191.515625 -514.273438 187.113281 -513.550781 181.59375 -512.5 C 179.238281 -511.445312 177.207031 -509.867188 175.5 -507.765625 C 173.789062 -505.671875 172.9375 -503.179688 172.9375 -500.296875 C 172.9375 -494.253906 174.117188 -488.601562 176.484375 -483.34375 C 178.847656 -478.09375 180.550781 -472.582031 181.59375 -466.8125 L 183.96875 -434.890625 C 184.488281 -430.429688 185.46875 -426.035156 186.90625 -421.703125 C 188.351562 -417.367188 189.992188 -413.097656 191.828125 -408.890625 C 193.671875 -404.691406 195.507812 -400.488281 197.34375 -396.28125 C 199.1875 -392.082031 200.632812 -387.882812 201.6875 -383.6875 L 201.6875 -363.984375 C 201.6875 -362.941406 202.800781 -361.101562 205.03125 -358.46875 C 207.269531 -355.84375 208.648438 -354.003906 209.171875 -352.953125 C 212.066406 -347.703125 214.429688 -341.726562 216.265625 -335.03125 C 218.109375 -328.332031 219.816406 -321.4375 221.390625 -314.34375 C 222.960938 -307.257812 224.601562 -300.238281 226.3125 -293.28125 C 228.019531 -286.320312 230.054688 -280.082031 232.421875 -274.5625 C 235.046875 -267.476562 238.523438 -259.992188 242.859375 -252.109375 C 247.191406 -244.234375 250.273438 -236.75 252.109375 -229.65625 L 254.078125 -207.203125 C 255.660156 -204.578125 257.300781 -200.769531 259 -195.78125 C 260.707031 -190.789062 262.546875 -185.863281 264.515625 -181 C 266.492188 -176.144531 268.597656 -171.878906 270.828125 -168.203125 C 273.054688 -164.523438 275.613281 -162.6875 278.5 -162.6875 C 282.96875 -162.6875 286.582031 -163.929688 289.34375 -166.421875 C 292.101562 -168.921875 294.925781 -171.617188 297.8125 -174.515625 L 300.96875 -178.453125 C 302.28125 -181.335938 302.9375 -183.832031 302.9375 -185.9375 C 302.664062 -188.820312 302.53125 -191.25 302.53125 -193.21875 C 302.53125 -195.1875 302.53125 -196.695312 302.53125 -197.75 C 302.53125 -199.59375 302.664062 -200.644531 302.9375 -200.90625 L 315.9375 -222.171875 C 317.25 -225.585938 318.753906 -229.660156 320.453125 -234.390625 C 322.160156 -239.117188 323.867188 -243.976562 325.578125 -248.96875 C 327.285156 -253.957031 328.992188 -259.007812 330.703125 -264.125 C 332.410156 -269.25 333.921875 -273.910156 335.234375 -278.109375 C 336.804688 -281.523438 338.25 -285.660156 339.5625 -290.515625 C 340.875 -295.378906 342.316406 -300.304688 343.890625 -305.296875 C 345.472656 -310.285156 347.3125 -315.007812 349.40625 -319.46875 C 351.507812 -323.9375 354.007812 -327.613281 356.90625 -330.5 C 356.113281 -331.03125 355.71875 -332.867188 355.71875 -336.015625 L 355.71875 -354.921875 C 355.71875 -356.242188 355.78125 -357.425781 355.90625 -358.46875 C 356.039062 -359.519531 356.375 -360.703125 356.90625 -362.015625 C 356.90625 -362.546875 357.097656 -363.726562 357.484375 -365.5625 C 357.878906 -367.40625 358.40625 -369.441406 359.0625 -371.671875 C 359.71875 -373.898438 360.441406 -376.128906 361.234375 -378.359375 C 362.023438 -380.597656 362.679688 -382.375 363.203125 -383.6875 L 367.921875 -393.140625 L 367.921875 -412.4375 C 369.242188 -413.488281 370.953125 -415 373.046875 -416.96875 C 375.148438 -418.9375 376.203125 -420.578125 376.203125 -421.890625 C 380.671875 -432.921875 384.347656 -445.523438 387.234375 -459.703125 C 390.117188 -473.890625 391.5625 -487.679688 391.5625 -501.078125 L 391.5625 -508.5625 C 389.195312 -512.238281 386.570312 -515.648438 383.6875 -518.796875 C 380.800781 -521.953125 376.597656 -524.1875 371.078125 -525.5 C 367.140625 -526.289062 362.019531 -526.6875 355.71875 -526.6875 C 351.519531 -526.6875 347.1875 -526.878906 342.71875 -527.265625 C 338.25 -527.660156 334.175781 -528.582031 330.5 -530.03125 C 326.820312 -531.476562 323.800781 -533.578125 321.4375 -536.328125 C 319.082031 -539.085938 317.90625 -542.960938 317.90625 -547.953125 C 317.90625 -551.890625 318.625 -555.101562 320.0625 -557.59375 C 321.507812 -560.09375 323.546875 -562.066406 326.171875 -563.515625 C 328.796875 -564.960938 331.816406 -565.878906 335.234375 -566.265625 C 338.648438 -566.660156 342.195312 -566.859375 345.875 -566.859375 L 415.59375 -558.203125 C 427.144531 -558.203125 438.703125 -560.957031 450.265625 -566.46875 C 456.304688 -568.039062 461.953125 -569.679688 467.203125 -571.390625 C 472.453125 -573.097656 477.441406 -573.953125 482.171875 -573.953125 C 488.992188 -570.804688 495.488281 -568.769531 501.65625 -567.84375 C 507.832031 -566.925781 514.335938 -566.46875 521.171875 -566.46875 L 529.4375 -566.46875 C 531.007812 -566.46875 532.519531 -566.46875 533.96875 -566.46875 C 535.414062 -566.46875 537.054688 -566.597656 538.890625 -566.859375 C 540.203125 -566.335938 541.382812 -565.679688 542.4375 -564.890625 C 543.488281 -564.367188 544.40625 -563.84375 545.1875 -563.3125 C 545.976562 -562.789062 546.375 -562.265625 546.375 -561.734375 C 547.425781 -559.640625 548.28125 -557.410156 548.9375 -555.046875 C 549.59375 -552.679688 549.921875 -550.316406 549.921875 -547.953125 C 549.921875 -542.171875 548.738281 -537.441406 546.375 -533.765625 C 545.320312 -530.878906 543.484375 -528.1875 540.859375 -525.6875 C 538.234375 -523.195312 536.265625 -521.691406 534.953125 -521.171875 L 512.5 -521.171875 L 502.65625 -523.53125 C 501.601562 -523.53125 500.09375 -523.332031 498.125 -522.9375 C 496.15625 -522.539062 493.988281 -522.082031 491.625 -521.5625 C 489.257812 -521.039062 486.957031 -520.582031 484.71875 -520.1875 C 482.488281 -519.789062 480.851562 -519.460938 479.8125 -519.203125 C 473.769531 -514.210938 468.710938 -508.5625 464.640625 -502.25 C 460.566406 -495.945312 457.148438 -489.316406 454.390625 -482.359375 C 451.640625 -475.398438 449.410156 -468.3125 447.703125 -461.09375 C 445.992188 -453.875 444.613281 -446.71875 443.5625 -439.625 C 443.5625 -437.78125 442.90625 -436.203125 441.59375 -434.890625 L 429.78125 -418.359375 C 427.15625 -415.722656 425.84375 -412.175781 425.84375 -407.71875 C 425.84375 -405.875 425.84375 -403.96875 425.84375 -402 C 425.84375 -400.03125 425.578125 -397.992188 425.046875 -395.890625 C 424.253906 -394.054688 423.203125 -392.546875 421.890625 -391.359375 C 420.578125 -390.179688 419.132812 -389.066406 417.5625 -388.015625 C 415.988281 -386.960938 414.546875 -385.910156 413.234375 -384.859375 C 411.921875 -383.816406 410.867188 -382.503906 410.078125 -380.921875 L 410.875 -366.75 C 410.875 -359.914062 410.148438 -353.476562 408.703125 -347.4375 C 407.253906 -341.40625 404.035156 -336.679688 399.046875 -333.265625 L 390.390625 -298.984375 C 384.867188 -293.734375 379.8125 -286.972656 375.21875 -278.703125 C 370.625 -270.429688 366.617188 -262.488281 363.203125 -254.875 C 361.890625 -251.71875 361.097656 -248.628906 360.828125 -245.609375 C 360.566406 -242.585938 360.238281 -239.632812 359.84375 -236.75 C 359.457031 -233.863281 358.671875 -230.910156 357.484375 -227.890625 C 356.304688 -224.867188 354.140625 -221.78125 350.984375 -218.625 C 350.984375 -213.632812 350.390625 -208.90625 349.203125 -204.4375 C 348.023438 -199.976562 346.582031 -195.582031 344.875 -191.25 C 343.175781 -186.914062 341.144531 -182.453125 338.78125 -177.859375 C 336.414062 -173.265625 334.050781 -168.472656 331.6875 -163.484375 C 329.320312 -157.703125 326.957031 -151.265625 324.59375 -144.171875 C 322.226562 -137.085938 319.601562 -130.785156 316.71875 -125.265625 L 310.421875 -116.609375 C 308.316406 -114.503906 307 -112.398438 306.46875 -110.296875 C 306.46875 -108.722656 306.597656 -106.882812 306.859375 -104.78125 C 307.128906 -102.6875 307.265625 -100.457031 307.265625 -98.09375 C 307.265625 -94.675781 307.128906 -92.046875 306.859375 -90.203125 C 306.597656 -88.367188 306.46875 -86.925781 306.46875 -85.875 C 306.46875 -85.082031 306.207031 -83.832031 305.6875 -82.125 C 305.164062 -80.425781 304.578125 -78.65625 303.921875 -76.8125 C 303.265625 -74.976562 302.671875 -73.335938 302.140625 -71.890625 C 301.617188 -70.441406 301.226562 -69.457031 300.96875 -68.9375 L 297.8125 -62.640625 C 297.019531 -60.273438 296.097656 -56.269531 295.046875 -50.625 C 294.003906 -44.976562 292.757812 -39.066406 291.3125 -32.890625 C 289.863281 -26.722656 288.414062 -20.878906 286.96875 -15.359375 C 285.53125 -9.847656 284.285156 -6.039062 283.234375 -3.9375 C 280.347656 5.25 276.34375 11.941406 271.21875 16.140625 C 266.09375 20.347656 258.804688 22.453125 249.359375 22.453125 C 246.734375 22.453125 244.367188 21.203125 242.265625 18.703125 C 240.160156 16.210938 238.253906 13.257812 236.546875 9.84375 C 234.847656 6.4375 233.40625 3.023438 232.21875 -0.390625 C 231.039062 -3.804688 230.1875 -6.429688 229.65625 -8.265625 C 228.875 -10.109375 227.757812 -14.050781 226.3125 -20.09375 C 224.863281 -26.132812 223.414062 -32.695312 221.96875 -39.78125 C 220.53125 -46.875 219.085938 -53.703125 217.640625 -60.265625 C 216.203125 -66.835938 214.957031 -71.695312 213.90625 -74.84375 C 211.007812 -87.976562 207.59375 -100.390625 203.65625 -112.078125 C 199.71875 -123.765625 196.566406 -135.910156 194.203125 -148.515625 C 193.679688 -151.140625 192.4375 -153.238281 190.46875 -154.8125 C 188.5 -156.382812 186.394531 -157.894531 184.15625 -159.34375 C 181.925781 -160.789062 179.828125 -162.429688 177.859375 -164.265625 C 175.890625 -166.109375 174.507812 -168.601562 173.71875 -171.75 L 168.203125 -207.203125 C 167.679688 -208.515625 166.894531 -210.8125 165.84375 -214.09375 C 164.789062 -217.382812 163.738281 -220.734375 162.6875 -224.140625 C 161.632812 -227.554688 160.710938 -230.707031 159.921875 -233.59375 C 159.140625 -236.488281 158.75 -238.328125 158.75 -239.109375 C 157.4375 -244.628906 155.269531 -249.75 152.25 -254.46875 C 149.226562 -259.195312 147.71875 -264.320312 147.71875 -269.84375 Z M 148.90625 -274.5625 "/></g></g></g></g></g><g clip-path="url(#42e89c79d0)"><g clip-path="url(#b12a3aae2b)"><g transform="matrix(1, 0, 0, 1, 144, 279)"><g clip-path="url(#19f626dc00)"><g clip-path="url(#b9cda43883)"><g clip-path="url(#b9958a20eb)"><rect x="-322.2" width="1166.4" fill="#c2cdff" height="1166.39999" y="-457.199998" fill-opacity="1"/></g></g></g></g></g></g><g clip-path="url(#c92c8f0941)"><g clip-path="url(#63c49e231e)"><g transform="matrix(1, 0, 0, 1, 372, 372)"><g clip-path="url(#9621b6f27a)"><g clip-path="url(#135fb98fe9)"><g clip-path="url(#c3a96baa8d)"><path fill="#cb6ce6" d="M 0.292969 0.292969 L 65.707031 0.292969 L 65.707031 65.707031 L 0.292969 65.707031 Z M 0.292969 0.292969 " fill-opacity="1" fill-rule="nonzero"/></g></g></g></g></g></g></svg>